<svg xmlns="http://www.w3.org/2000/svg" viewBox="0 0 64 64" fill="none">
  <rect width="64" height="64" rx="14" fill="#F5F0E8"/>
  <defs>
    <linearGradient id="g" x1="0%" y1="0%" x2="100%" y2="100%">
      <stop offset="0%" stop-color="#E8D5A3"/>
      <stop offset="50%" stop-color="#C4A35A"/>
      <stop offset="100%" stop-color="#8F7335"/>
    </linearGradient>
  </defs>
  <path fill="#1A1714" d="M24 12c0-1.7 1.3-3 3-3h10c1.7 0 3 1.3 3 3v2.5c0 .8-.3 1.6-.9 2.2C43.5 21 46 26.8 46 34c0 9.4-5.4 16.5-14 16.5S18 43.4 18 34c0-7.2 2.5-13 6.9-17.3.6-.6.9-1.4.9-2.2V12z"/>
  <path stroke="url(#g)" stroke-width="1.5" stroke-linecap="round" d="M28 16c1.5 5 .8 10-1.5 15m5-18c3 7 5 13 2.5 21m0 3c2.5 3.5 4 7 3.5 10"/>
</svg>
